<?xml version="1.0" standalone="no"?>
<!-- Generator: Adobe Fireworks 10, Export SVG Extension by Aaron Beall (http://fireworks.abeall.com) . Version: 0.6.1  -->
<!DOCTYPE svg PUBLIC "-//W3C//DTD SVG 1.1//EN" "http://www.w3.org/Graphics/SVG/1.1/DTD/svg11.dtd">
<svg id="holdme-logo-large.fw-Page%201" viewBox="0 0 216 181" style="background-color:#ffffff00" version="1.1"
	xmlns="http://www.w3.org/2000/svg" xmlns:xlink="http://www.w3.org/1999/xlink" xml:space="preserve"
	x="0px" y="0px" width="216px" height="181px"
>
	<g id="Background">
		<path d="M 111.8576 162.2133 C 111.8576 170.0107 111.8576 175.9733 102.2098 175.9733 C 101.5207 175.9733 98.9939 175.744 97.6156 175.2853 C 96.6968 175.056 95.0888 174.368 94.6294 173.2213 C 93.7106 170.928 93.0214 167.7173 93.0214 165.1947 L 93.0214 159.6907 C 93.2511 151.2053 96.0077 149.6 101.9801 149.6 C 111.8576 149.6 111.8576 155.5627 111.8576 162.2133 ZM 117.1409 131.4827 L 111.8576 131.4827 L 111.8576 149.6 C 109.7902 145.7013 104.0475 145.2427 100.8315 145.2427 C 93.4809 145.2427 88.1976 147.7653 87.7381 158.3147 L 87.7381 166.5707 C 87.7381 167.0293 88.1976 169.3227 88.1976 170.6987 C 88.8867 178.7253 95.5482 180.3307 101.0612 180.3307 C 104.5069 180.3307 109.3308 179.872 112.0873 175.744 C 112.317 177.12 112.317 178.496 112.0873 179.872 L 117.1409 179.872 L 117.1409 131.4827 Z" fill="#ffffff"/>
		<path d="M 59.7136 151.2053 C 60.6325 151.8933 60.8622 154.416 61.0919 155.5627 C 61.3216 157.856 61.5513 162.2133 61.5513 162.672 C 61.5513 163.36 61.0919 167.7173 61.0919 170.0107 C 61.0919 171.1573 60.8622 172.7627 59.9433 173.9093 C 57.6462 176.432 54.4303 175.9733 51.9035 175.9733 C 49.147 175.9733 46.1608 176.2027 43.634 173.9093 C 43.4043 173.68 42.2557 168.6347 42.2557 167.2587 L 42.2557 158.544 C 42.4855 157.6267 42.4855 156.7093 42.4855 155.792 C 42.2557 149.6 47.9985 149.6 51.9035 149.6 C 54.4303 149.6 56.7274 149.1413 59.7136 151.2053 ZM 66.8346 162.9013 C 66.8346 150.5173 66.3752 145.472 51.9035 145.472 C 46.3905 145.472 38.3507 145.0133 37.4319 153.9573 C 37.4319 155.104 37.2021 156.2507 36.9724 157.3973 L 36.9724 168.176 C 36.9724 168.6347 37.4319 172.304 38.121 174.368 C 38.3507 175.056 38.8101 175.9733 39.2695 176.6613 C 41.1072 178.7253 43.4043 179.4133 45.242 179.6427 C 47.3093 180.1013 51.2144 180.3307 51.9035 180.3307 C 66.1455 180.3307 66.8346 175.056 66.8346 162.9013 Z" fill="#ffffff"/>
		<image visibility="hidden" x="0" y="0" width="216" height="180" xlink:href="holdme-logo-white.svg.images/image1.png"/>
		<path d="M 154.2375 31.6591 L 102.0916 61.5613 L 49.0908 31.0359 L 101.2367 1.1337 L 154.2375 31.6591 Z" fill="#1e76bc"/>
		<path d="M 209.9433 157.856 L 209.9433 159.6907 L 190.8775 159.6907 L 190.8775 156.48 C 190.8775 149.6 196.3905 149.6 200.2956 149.6 C 206.9571 149.6 209.9433 150.0587 209.9433 157.856 ZM 212.0107 148.224 C 207.876 144.784 204.2006 145.472 200.0659 145.472 C 192.2557 145.472 185.8239 146.3893 185.3645 158.544 L 185.3645 166.8 C 185.3645 167.2587 185.8239 171.8453 186.7427 174.368 C 186.9724 175.2853 187.4319 176.2027 188.121 176.8907 C 189.9586 178.7253 192.4855 179.4133 194.0934 179.6427 C 196.1608 180.1013 200.0659 180.3307 200.755 180.3307 C 205.8086 180.3307 215.2267 180.3307 215.2267 170.928 C 215.2267 170.24 214.9969 170.0107 214.9969 169.552 L 210.173 169.552 C 210.4028 176.8907 205.1194 176.2027 200.755 176.2027 C 191.3369 176.2027 190.4181 173.2213 190.4181 164.5067 C 190.4181 163.8187 190.6478 163.8187 190.8775 163.5893 L 214.9969 163.5893 L 214.9969 156.48 C 214.9969 154.6453 213.1593 148.912 212.0107 148.224 Z" fill="#ffffff"/>
		<path d="M 152.7458 150.976 C 156.8806 145.472 159.8668 145.472 164.461 145.472 C 164.9204 145.472 166.5283 145.472 167.6769 145.472 C 171.8116 145.7013 176.4058 150.5173 176.4058 154.6453 L 176.4058 179.872 L 171.5819 179.872 L 171.5819 154.6453 C 170.8928 149.3707 166.758 149.3707 163.5421 149.3707 C 158.2588 149.3707 153.6646 150.7467 153.6646 157.6267 L 153.6646 179.872 L 148.8407 179.872 L 148.8407 156.48 C 148.611 150.7467 145.1654 149.3707 141.0306 149.3707 C 140.3415 149.3707 138.0444 149.6 136.4364 150.0587 C 133.9097 150.5173 130.9234 155.5627 130.9234 157.856 L 130.9234 179.872 L 126.0995 179.872 L 126.0995 145.9307 L 130.6937 145.9307 C 130.9234 146.6187 130.9234 147.3067 130.9234 150.976 C 133.9097 145.472 138.2741 145.472 142.1792 145.472 C 145.1654 145.472 150.4487 145.472 152.7458 150.976 Z" fill="#ffffff"/>
		<path d="M 153.6646 31.0347 L 137.3553 40.208 L 120.1271 30.1173 L 103.0138 39.6347 L 120.9311 49.7253 L 101.291 61.3067 L 49.147 31.264 C 49.147 31.0347 49.147 30.8053 49.3767 30.576 C 56.7274 26.448 61.2067 24.2693 68.5574 19.912 L 85.0965 29.544 L 103.3584 18.88 C 103.3584 18.88 87.049 9.4773 86.1302 9.4773 L 101.291 0.992 L 153.6646 31.0347 Z" fill="#515caa"/>
		<path d="M 49.0322 31.1493 L 100.7167 60.9627 L 100.7167 121.2773 L 49.0322 91.464 L 49.0322 31.1493 Z" fill="#1aace3"/>
		<path d="M 101.1761 121.2773 L 153.1997 91.5965 L 154.0092 32.0667 L 101.9855 61.7475 L 101.1761 121.2773 Z" fill="#1e76bc"/>
		<path d="M 49.3767 31.264 C 57.4165 35.8507 58.9096 36.6533 66.7198 41.24 C 69.0168 47.8907 74.0704 57.5227 76.3675 63.944 L 85.5559 52.248 L 101.291 61.3067 L 101.291 121.6213 L 82.9142 110.384 L 82.9142 82.176 L 74.0704 88.712 L 64.9969 73.232 L 64.9969 100.5227 C 64.9969 100.5227 64.7672 100.752 64.5375 100.752 L 48.9173 91.5787 L 48.9173 31.264 L 49.3767 31.264 Z" fill="#1e76bc"/>
		<path d="M 153.6646 31.264 L 153.6646 42.272 L 122.4242 60.6187 L 122.4242 73.4613 L 122.6539 73.6907 L 141.2603 63.3707 L 141.2603 77.8187 L 122.4242 88.5973 L 122.4242 99.1467 L 153.4349 81.7173 L 153.4349 91.5787 L 101.291 121.6213 L 101.291 61.0773 L 152.9755 31.264 L 153.6646 31.264 Z" fill="#1aace3"/>
		<path d="M 79.6983 131.4827 L 79.6983 179.872 L 74.8744 179.872 L 74.8744 131.4827 L 79.6983 131.4827 Z" fill="#ffffff"/>
		<path d="M 5.0429 131.4827 L 5.2726 149.8293 C 5.9617 146.3893 12.853 145.2427 15.8392 145.2427 C 18.8254 145.2427 22.7305 145.472 25.7167 148.4533 C 26.6355 149.3707 28.7029 153.4987 28.7029 155.104 L 28.7029 179.872 L 23.879 179.872 L 23.879 156.48 C 23.6493 150.288 19.0551 149.3707 15.3798 149.3707 C 8.2588 149.3707 5.0429 151.4347 5.0429 159.232 L 5.0429 179.872 L 0.4487 179.872 L 0.4487 131.4827 L 5.0429 131.4827 Z" fill="#ffffff"/>
	</g>
	<g id="Layer%201">
	</g>
</svg>