<?xml version="1.0" standalone="no"?>
<!-- Generator: Adobe Fireworks 10, Export SVG Extension by Aaron Beall (http://fireworks.abeall.com) . Version: 0.6.1  -->
<!DOCTYPE svg PUBLIC "-//W3C//DTD SVG 1.1//EN" "http://www.w3.org/Graphics/SVG/1.1/DTD/svg11.dtd">
<svg id="icons.fw-Dash" viewBox="0 0 49 49" style="background-color:#ffffff00" version="1.1"
	xmlns="http://www.w3.org/2000/svg" xmlns:xlink="http://www.w3.org/1999/xlink" xml:space="preserve"
	x="0px" y="0px" width="49px" height="49px"
>
	<g id="Layer%201">
		<image id="bitcoins2" visibility="hidden" x="2" y="2" width="47" height="47" xlink:href="icon-dash.svg.images/bitcoins1.png"/>
		<path id="Ellipse" d="M 1 24.5 C 1 11.5211 11.5211 1 24.5 1 C 37.4789 1 48 11.5211 48 24.5 C 48 37.4789 37.4789 48 24.5 48 C 11.5211 48 1 37.4789 1 24.5 Z" stroke="#ffffff" stroke-width="2" fill="none"/>
		<path d="M 38.4286 16 C 40.4286 16.145 41 18.1756 41 19.3359 C 41 20.7863 37.4286 30.3588 37 31.5191 C 36.5714 32.6794 33.2857 35 32 35 L 9.8571 35 C 10.2857 33.2595 10.8571 31.8092 11.2857 30.3588 L 30.8571 30.3588 L 34 20.4962 L 14.4286 20.4962 L 15.8571 16 L 38.4286 16 ZM 22 23.2519 L 20.5714 27.6031 L 9 27.6031 L 10.4286 23.2519 L 22 23.2519 Z" fill="#ffffff"/>
	</g>
</svg>