<?xml version="1.0" standalone="no"?>
<!-- Generator: Adobe Fireworks 10, Export SVG Extension by Aaron Beall (http://fireworks.abeall.com) . Version: 0.6.1  -->
<!DOCTYPE svg PUBLIC "-//W3C//DTD SVG 1.1//EN" "http://www.w3.org/Graphics/SVG/1.1/DTD/svg11.dtd">
<svg id="icons.fw-Bitcoin" viewBox="0 0 49 49" style="background-color:#ffffff00" version="1.1"
	xmlns="http://www.w3.org/2000/svg" xmlns:xlink="http://www.w3.org/1999/xlink" xml:space="preserve"
	x="0px" y="0px" width="49px" height="49px"
>
	<g id="Layer%201">
		<image id="bitcoins2" visibility="hidden" x="2" y="2" width="47" height="47" xlink:href="icon-bitcoin.svg.images/bitcoins1.png"/>
		<path d="M 34.3976 29.0754 C 34.1074 28.1897 33.6207 27.4416 32.9425 26.8311 C 32.4705 26.4058 31.765 25.9426 30.8152 25.463 C 31.8186 25.3564 32.655 25.122 33.3346 24.7644 C 34.0075 24.4034 34.5679 23.9415 35.0091 23.3687 C 35.4497 22.7995 35.7459 22.1563 35.8958 21.4472 C 36.1021 20.4708 36.0015 19.5128 35.5988 18.5751 C 35.1937 17.636 34.5047 16.8411 33.5309 16.1843 C 32.968 15.801 32.2413 15.4739 31.385 15.1835 L 32.1553 11.5758 L 29.1934 10.9744 L 28.4491 14.4413 L 26.5653 14.0472 L 27.3095 10.5918 L 24.3949 10 L 23.6507 13.4374 L 17.5668 12.1645 L 16.939 15.033 L 17.7393 15.2046 C 18.2729 15.319 18.6257 15.4473 18.7941 15.5853 C 18.9625 15.7265 19.0649 15.8905 19.1084 16.0744 C 19.1509 16.2627 19.0998 16.6614 18.9645 17.2822 L 16.4183 28.9651 C 16.2841 29.5808 16.1601 29.9664 16.0456 30.1243 C 15.9274 30.2814 15.7664 30.3827 15.5548 30.4346 C 15.3447 30.4827 14.9698 30.4456 14.4364 30.3164 L 13.6362 30.1227 L 13 33.0295 L 19.0827 34.5345 L 18.3256 38.0313 L 21.2355 38.7699 L 21.9927 35.2546 L 23.8183 35.7063 C 23.8379 35.7111 23.8583 35.712 23.8818 35.7178 L 23.1237 39.2491 L 26.0819 40 L 26.8777 36.2733 C 27.8666 36.3865 28.7178 36.3945 29.4276 36.2888 C 30.7851 36.0922 31.921 35.5888 32.8178 34.7873 C 33.7162 33.9846 34.2879 33.0046 34.5309 31.853 C 34.7297 30.8912 34.6883 29.963 34.3976 29.0754 L 34.3976 29.0754 ZM 24.3394 17.124 L 26.6277 17.6167 C 27.9755 17.9069 28.8955 18.1917 29.3823 18.4742 C 29.8749 18.7542 30.2166 19.1257 30.4125 19.583 C 30.6049 20.039 30.645 20.55 30.5255 21.1099 C 30.4104 21.6492 30.1582 22.0929 29.7775 22.4403 C 29.3922 22.791 28.8888 22.9992 28.2657 23.0752 C 27.6406 23.1468 26.7243 23.0495 25.5174 22.7784 L 23.2292 22.2646 L 24.3394 17.124 ZM 28.0328 31.7396 C 27.5033 32.1759 26.9229 32.4062 26.2959 32.4326 C 25.6694 32.4621 24.9139 32.3679 24.0181 32.1517 L 22.4915 31.7835 C 21.9824 31.6607 21.678 31.557 21.5779 31.4756 C 21.4739 31.3913 21.414 31.2728 21.3942 31.1193 C 21.3796 30.9982 21.4388 30.6133 21.5674 29.9593 L 22.5591 25.3673 L 25.261 25.9891 C 26.4578 26.2646 27.3206 26.584 27.8596 26.9419 C 28.3995 27.3014 28.7669 27.7366 28.9691 28.2481 C 29.1686 28.7554 29.2003 29.3288 29.0648 29.9642 C 28.9093 30.7128 28.562 31.3068 28.0328 31.7396 L 28.0328 31.7396 ZM 28.0328 31.7396 L 28.0328 31.7396 Z" fill="#ffffff"/>
		<path id="Ellipse" d="M 1 24.5 C 1 11.5211 11.5211 1 24.5 1 C 37.4789 1 48 11.5211 48 24.5 C 48 37.4789 37.4789 48 24.5 48 C 11.5211 48 1 37.4789 1 24.5 Z" stroke="#ffffff" stroke-width="2" fill="none"/>
	</g>
</svg>