<?xml version="1.0" standalone="no"?>
<!-- Generator: Adobe Fireworks 10, Export SVG Extension by Aaron Beall (http://fireworks.abeall.com) . Version: 0.6.1  -->
<!DOCTYPE svg PUBLIC "-//W3C//DTD SVG 1.1//EN" "http://www.w3.org/Graphics/SVG/1.1/DTD/svg11.dtd">
<svg id="icons.fw-Bitcoin2" viewBox="0 0 49 49" style="background-color:#ffffff00" version="1.1"
	xmlns="http://www.w3.org/2000/svg" xmlns:xlink="http://www.w3.org/1999/xlink" xml:space="preserve"
	x="0px" y="0px" width="49px" height="49px"
>
	<g id="Layer%201">
		<image id="bitcoins2" visibility="hidden" x="2" y="2" width="47" height="47" xlink:href="icon-bitcoin2.svg.images/bitcoins1.png"/>
		<path d="M 35.1215 22.2357 C 34.3504 21.7037 33.4995 21.4016 32.5729 21.326 C 31.9278 21.273 31.0671 21.3319 29.9947 21.5264 C 30.7596 20.8303 31.3099 20.1337 31.6568 19.4339 C 31.996 18.7356 32.1819 18.0249 32.2027 17.2981 C 32.2251 16.5746 32.0839 15.8797 31.7822 15.2212 C 31.3669 14.3145 30.7089 13.6093 29.8137 13.1043 C 28.9156 12.5996 27.8694 12.3831 26.6709 12.4504 C 25.9759 12.4863 25.1793 12.667 24.2977 12.9559 L 22.7694 9.6009 L 19.9617 10.9227 L 21.4271 14.1493 L 19.6344 14.9806 L 18.176 11.7633 L 15.4132 13.064 L 16.8608 16.2669 L 11.0713 18.9518 L 12.2737 21.6287 L 13.0378 21.2789 C 13.5472 21.0456 13.9157 20.9335 14.1377 20.9414 C 14.3615 20.9518 14.5445 21.0207 14.6907 21.1413 C 14.8388 21.2661 15.0358 21.6161 15.2965 22.1952 L 20.2028 33.0913 C 20.4614 33.6657 20.5903 34.0496 20.5906 34.2456 C 20.5871 34.4432 20.5149 34.6222 20.3713 34.7926 C 20.2266 34.959 19.8946 35.1574 19.3764 35.3788 L 18.5992 35.7109 L 19.8177 38.4236 L 25.7455 35.9251 L 27.2181 39.1834 L 30.0652 38.003 L 28.5815 34.7298 L 30.3606 33.98 C 30.3797 33.9719 30.3971 33.9602 30.42 33.9506 L 31.9125 37.237 L 34.8068 36.0371 L 33.2281 32.5713 C 34.113 32.06 34.821 31.5482 35.3439 31.0316 C 36.3473 30.048 36.9836 28.9539 37.2437 27.7668 C 37.5041 26.5778 37.3884 25.4458 36.8983 24.3766 C 36.4854 23.4862 35.8942 22.7688 35.1215 22.2357 L 35.1215 22.2357 ZM 19.6418 18.797 L 21.8276 17.7983 C 23.1153 17.21 24.0461 16.8778 24.6178 16.8075 C 25.1926 16.7317 25.6979 16.8208 26.134 17.0675 C 26.5666 17.3152 26.9063 17.6996 27.1435 18.2202 C 27.372 18.7217 27.4299 19.2302 27.3239 19.7398 C 27.216 20.255 26.925 20.7279 26.456 21.168 C 25.9825 21.6058 25.1672 22.0856 24.0075 22.6034 L 21.809 23.5852 L 19.6418 18.797 ZM 31.4622 28.2413 C 31.2865 28.9126 30.9452 29.4501 30.4431 29.853 C 29.9432 30.2579 29.2626 30.6423 28.3929 31.0147 L 26.9108 31.6494 C 26.4167 31.861 26.103 31.9634 25.9715 31.9592 C 25.8349 31.955 25.7143 31.8967 25.6059 31.7859 C 25.5212 31.698 25.3392 31.3539 25.053 30.7525 L 23.117 26.4752 L 25.7221 25.3281 C 26.8761 24.82 27.7805 24.5503 28.4404 24.5085 C 29.1022 24.4676 29.6668 24.5921 30.1408 24.8781 C 30.6099 25.1626 30.9801 25.602 31.2494 26.1928 C 31.5702 26.8863 31.6397 27.573 31.4622 28.2413 L 31.4622 28.2413 ZM 31.4622 28.2413 L 31.4622 28.2413 Z" fill="#ffffff"/>
		<path id="Ellipse" d="M 1 24.5 C 1 11.5211 11.5211 1 24.5 1 C 37.4789 1 48 11.5211 48 24.5 C 48 37.4789 37.4789 48 24.5 48 C 11.5211 48 1 37.4789 1 24.5 Z" stroke="#ffffff" stroke-width="2" fill="none"/>
	</g>
</svg>