<?xml version="1.0" standalone="no"?>
<!-- Generator: Adobe Fireworks 10, Export SVG Extension by Aaron Beall (http://fireworks.abeall.com) . Version: 0.6.1  -->
<!DOCTYPE svg PUBLIC "-//W3C//DTD SVG 1.1//EN" "http://www.w3.org/Graphics/SVG/1.1/DTD/svg11.dtd">
<svg id="icons.fw-Litecoin" viewBox="0 0 49 49" style="background-color:#ffffff00" version="1.1"
	xmlns="http://www.w3.org/2000/svg" xmlns:xlink="http://www.w3.org/1999/xlink" xml:space="preserve"
	x="0px" y="0px" width="49px" height="49px"
>
	<g id="Layer%201">
		<image id="bitcoins2" visibility="hidden" x="2" y="2" width="47" height="47" xlink:href="icon-litecoin.svg.images/bitcoins1.png"/>
		<path id="Ellipse" d="M 1 24.5 C 1 11.5211 11.5211 1 24.5 1 C 37.4789 1 48 11.5211 48 24.5 C 48 37.4789 37.4789 48 24.5 48 C 11.5211 48 1 37.4789 1 24.5 Z" stroke="#ffffff" stroke-width="2" fill="none"/>
		<path d="M 29.0541 10 L 26.2973 20.7669 C 27.7568 20.4356 28.8919 19.9387 30.027 19.6074 C 30.027 19.6074 30.1892 19.4417 30.1892 19.9387 C 30.1892 20.2699 30.027 22.2577 29.2162 23.2515 C 28.4054 24.2454 26.1351 23.7485 25.1622 25.0736 C 23.8649 26.7301 24.027 29.3804 23.3784 31.5337 L 37 31.5337 C 36.6757 33.6871 36.1892 35.3436 35.7027 37 L 13.8108 36.8344 L 15.9189 28.7178 C 15.9189 28.7178 15.9189 28.5521 15.5946 28.5521 C 15.1081 28.5521 13.8108 29.2147 13 29.546 L 13 28.8834 C 13.3243 27.8896 13.6486 26.7301 13.8108 25.7362 C 14.7838 25.2393 16.4054 25.4049 16.8919 24.411 C 19 19.9387 19.6486 14.8037 20.7838 10 L 29.0541 10 Z" fill="#ffffff"/>
	</g>
</svg>